<?xml version="1.0" encoding="UTF-8" standalone="no"?><!DOCTYPE svg PUBLIC "-//W3C//DTD SVG 1.1//EN" "http://www.w3.org/Graphics/SVG/1.1/DTD/svg11.dtd"><svg width="100%" height="100%" viewBox="0 0 1025 224" version="1.1" xmlns="http://www.w3.org/2000/svg" xmlns:xlink="http://www.w3.org/1999/xlink" xml:space="preserve" xmlns:serif="http://www.serif.com/" style="fill-rule:evenodd;clip-rule:evenodd;stroke-miterlimit:10;"><rect id="Artboard1" x="0" y="0" width="1024.19" height="223.164" style="fill:none;"/><g transform="matrix(4.16667,0,0,4.16667,-1930.53,-1815.64)"><text x="520.405px" y="478.785px" style="font-family:'HelveticaNeue-CondensedBold', 'Helvetica Neue';font-weight:700;font-stretch:condensed;font-size:47.099px;fill:#f27428;">IEP</text><text x="579.654px" y="478.785px" style="font-family:'HelveticaNeue-Light', 'Helvetica Neue';font-weight:300;font-size:47.099px;fill:#00b4c1;">centr<tspan x="681.763px " y="478.785px ">e</tspan></text></g><path d="M67.288,81.862l37.096,-21.688c0.941,-0.55 2.108,-0.554 3.054,-0.004l37.396,21.692l-38.775,22.35l-38.771,-22.35Z" style="fill:#00b4c1;fill-rule:nonzero;stroke:#09b3c0;stroke-width:0.3px;"/><path d="M61.697,90.882l38.72,22.505l0,44.804l-37.22,-21.438c-0.93,-0.533 -1.5,-1.525 -1.5,-2.596l0,-43.275Z" style="fill:#00b4c1;fill-rule:nonzero;stroke:#09b3c0;stroke-width:0.3px;"/><path d="M150.424,90.882l-38.721,22.505l0,44.804l37.217,-21.434c0.929,-0.537 1.504,-1.529 1.504,-2.604l0,-43.271Z" style="fill:#00b4c1;fill-rule:nonzero;stroke:#09b3c0;stroke-width:0.3px;"/><path d="M48.098,112.846l0,20.733l-29.604,17.15l0,-9.042l0,-35.595l0,-27.488l0,-14.933c0,-2.646 1.408,-5.096 3.696,-6.429l75.658,-44.13l0,34.184l-47.75,27.625c-1.238,0.716 -2,2.037 -2,3.462l0,34.463Z" style="fill:#6664ad;fill-rule:nonzero;stroke:#6664ad;stroke-width:0.35px;"/><path d="M162.035,74.927l-47.763,-27.63l0,-34.187l75.634,44.117c2.304,1.341 3.721,3.808 3.721,6.475l0,87.029l-29.605,-17.15l0,-20.734l0,-34.475c0,-1.42 -0.758,-2.733 -1.987,-3.445Z" style="fill:#f27428;fill-rule:nonzero;stroke:#f07327;stroke-width:0.35px;"/><path d="M137.879,159.096l17.954,-10.367l29.658,17.063l-7.833,4.521l-30.829,17.796l-23.804,13.745l-12.888,7.442c-2.321,1.338 -5.175,1.346 -7.5,0.017l-76.004,-43.434l29.604,-17.091l47.804,27.546c1.234,0.708 2.754,0.708 3.988,-0.005l29.85,-17.233Z" style="fill:#7dc046;fill-rule:nonzero;stroke:#7cbf43;stroke-width:0.35px;"/><rect x="249.01" y="39.182" width="28.258" height="140.117" style="fill:none;stroke:#f07327;stroke-width:0.73px;"/><path d="M376.569,62.34l-50.042,0l0,32.967l47.1,0l0,23.158l-47.1,0l0,37.679l52.005,0l0,23.154l-80.263,0l0,-140.116l78.3,0l0,23.158Z" style="fill:none;fill-rule:nonzero;stroke:#f07327;stroke-width:0.73px;"/><path d="M433.478,102.57c5.625,0 10.171,-1.7 13.638,-5.104c3.466,-3.4 5.2,-8.7 5.2,-15.896c0,-7.062 -1.504,-12.425 -4.513,-16.091c-3.012,-3.659 -8.046,-5.496 -15.108,-5.496l-11.775,0l0,42.587l12.558,0Zm8.634,-63.387c7.195,0 13.245,1.208 18.154,3.629c4.904,2.421 8.862,5.592 11.871,9.517c3.008,3.929 5.17,8.408 6.479,13.445c1.304,5.038 1.962,10.171 1.962,15.405c0,7.195 -1.083,13.479 -3.241,18.841c-2.159,5.363 -5.167,9.746 -9.025,13.146c-3.859,3.4 -8.538,5.954 -14.03,7.654c-5.495,1.7 -11.579,2.55 -18.254,2.55l-15.108,0l0,55.929l-28.258,0l0,-140.116l49.45,0Z" style="fill:none;fill-rule:nonzero;stroke:#f07327;stroke-width:0.73px;"/><path d="M558.485,91.971c-4.584,-4.317 -10.992,-6.475 -19.234,-6.475c-5.883,0 -11.058,1.246 -15.5,3.729c-4.45,2.487 -8.146,5.758 -11.091,9.808c-2.942,4.059 -5.167,8.671 -6.671,13.842c-1.504,5.167 -2.259,10.433 -2.259,15.796c0,5.366 0.755,10.629 2.259,15.796c1.504,5.17 3.729,9.779 6.671,13.837c2.945,4.054 6.641,7.329 11.091,9.808c4.442,2.488 9.617,3.73 15.5,3.73c3.796,0 7.392,-0.717 10.796,-2.159c3.4,-1.437 6.408,-3.433 9.025,-5.983c2.617,-2.55 4.775,-5.596 6.479,-9.129c1.7,-3.529 2.746,-7.388 3.138,-11.575l12.366,0c-1.704,12.296 -6.216,21.879 -13.541,28.75c-7.329,6.866 -16.75,10.3 -28.263,10.3c-7.721,0 -14.554,-1.409 -20.508,-4.221c-5.95,-2.808 -10.954,-6.633 -15.013,-11.475c-4.054,-4.842 -7.129,-10.5 -9.22,-16.979c-2.096,-6.471 -3.138,-13.375 -3.138,-20.7c0,-7.325 1.042,-14.229 3.138,-20.704c2.091,-6.48 5.166,-12.134 9.22,-16.975c4.059,-4.838 9.063,-8.7 15.013,-11.58c5.954,-2.875 12.787,-4.32 20.508,-4.32c10.859,0 20.05,2.883 27.575,8.637c7.521,5.758 12,14.458 13.442,26.1l-12.363,0c-1.7,-7.583 -4.841,-13.542 -9.42,-17.858Z" style="fill:none;fill-rule:nonzero;stroke:#09b3c0;stroke-width:0.73px;"/><path d="M668.675,108.064c-1.504,-4.317 -3.633,-8.146 -6.379,-11.48c-2.746,-3.337 -6.083,-6.016 -10.008,-8.05c-3.925,-2.025 -8.375,-3.037 -13.346,-3.037c-5.1,0 -9.612,1.012 -13.537,3.037c-3.93,2.034 -7.263,4.713 -10.013,8.05c-2.746,3.334 -4.937,7.196 -6.571,11.575c-1.637,4.388 -2.716,8.867 -3.241,13.446l65.545,0c-0.129,-4.712 -0.95,-9.225 -2.45,-13.541Zm-61.229,37.775c1.242,4.779 3.238,9.062 5.988,12.854c2.746,3.8 6.208,6.937 10.4,9.421c4.183,2.487 9.221,3.729 15.108,3.729c9.029,0 16.096,-2.354 21.196,-7.067c5.104,-4.708 8.633,-10.987 10.596,-18.837l12.362,0c-2.616,11.516 -7.425,20.408 -14.421,26.687c-7,6.283 -16.912,9.421 -29.733,9.421c-7.979,0 -14.883,-1.408 -20.7,-4.221c-5.825,-2.812 -10.571,-6.667 -14.229,-11.575c-3.663,-4.908 -6.379,-10.6 -8.146,-17.075c-1.762,-6.475 -2.646,-13.308 -2.646,-20.508c0,-6.671 0.884,-13.213 2.646,-19.625c1.767,-6.409 4.483,-12.134 8.146,-17.171c3.658,-5.033 8.404,-9.088 14.229,-12.167c5.817,-3.071 12.721,-4.612 20.7,-4.612c8.113,0 15.046,1.637 20.804,4.908c5.754,3.271 10.429,7.554 14.029,12.854c3.596,5.296 6.184,11.379 7.755,18.246c1.566,6.871 2.22,13.842 1.962,20.904l-77.912,0c0,4.446 0.62,9.063 1.866,13.834Z" style="fill:none;fill-rule:nonzero;stroke:#09b3c0;stroke-width:0.73px;"/><path d="M712.338,78.038l0,17.463l0.392,0c2.354,-6.146 6.541,-11.088 12.558,-14.813c6.017,-3.729 12.625,-5.596 19.821,-5.596c7.066,0 12.983,0.921 17.762,2.75c4.771,1.834 8.6,4.417 11.479,7.75c2.875,3.338 4.909,7.43 6.084,12.267c1.179,4.842 1.766,10.275 1.766,16.288l0,65.154l-12.362,0l0,-63.192c0,-4.317 -0.392,-8.337 -1.175,-12.071c-0.788,-3.725 -2.163,-6.966 -4.125,-9.712c-1.958,-2.746 -4.613,-4.909 -7.946,-6.479c-3.337,-1.563 -7.492,-2.35 -12.462,-2.35c-4.975,0 -9.392,0.883 -13.246,2.65c-3.863,1.766 -7.134,4.187 -9.813,7.258c-2.683,3.075 -4.779,6.742 -6.279,10.992c-1.504,4.25 -2.325,8.866 -2.454,13.833l0,59.071l-12.363,0l0,-101.263l12.363,0Z" style="fill:none;fill-rule:nonzero;stroke:#09b3c0;stroke-width:0.73px;"/><path d="M845.781,78.038l0,10.4l-20.604,0l0,68.296c0,4.054 0.554,7.229 1.667,9.517c1.108,2.291 3.891,3.562 8.337,3.825c3.534,0 7.067,-0.196 10.6,-0.588l0,10.4c-1.833,0 -3.666,0.067 -5.496,0.196c-1.833,0.129 -3.662,0.196 -5.495,0.196c-8.242,0 -14,-1.6 -17.267,-4.804c-3.271,-3.209 -4.842,-9.129 -4.713,-17.763l0,-69.275l-17.658,0l0,-10.4l17.658,0l0,-30.421l12.367,0l0,30.421l20.604,0Z" style="fill:none;fill-rule:nonzero;stroke:#09b3c0;stroke-width:0.73px;"/><path d="M875.021,78.038l0,23.746l0.391,0c3.142,-8.242 8.017,-14.587 14.625,-19.037c6.6,-4.446 14.484,-6.475 23.642,-6.084l0,12.367c-5.625,-0.263 -10.729,0.487 -15.308,2.254c-4.579,1.767 -8.534,4.288 -11.871,7.554c-3.338,3.271 -5.921,7.167 -7.75,11.679c-1.833,4.513 -2.75,9.45 -2.75,14.817l0,53.967l-12.358,0l0,-101.263l11.379,0Z" style="fill:none;fill-rule:nonzero;stroke:#09b3c0;stroke-width:0.73px;"/><path d="M992.274,108.064c-1.504,-4.317 -3.629,-8.146 -6.379,-11.48c-2.746,-3.337 -6.084,-6.016 -10.009,-8.05c-3.925,-2.025 -8.371,-3.037 -13.346,-3.037c-5.1,0 -9.612,1.012 -13.541,3.037c-3.921,2.034 -7.259,4.713 -10.004,8.05c-2.75,3.334 -4.942,7.196 -6.575,11.575c-1.638,4.388 -2.721,8.867 -3.242,13.446l65.55,0c-0.133,-4.712 -0.954,-9.225 -2.454,-13.541Zm-61.229,37.775c1.245,4.779 3.237,9.062 5.983,12.854c2.75,3.8 6.212,6.937 10.4,9.421c4.187,2.487 9.225,3.729 15.112,3.729c9.03,0 16.096,-2.354 21.196,-7.067c5.104,-4.708 8.634,-10.987 10.596,-18.837l12.367,0c-2.621,11.516 -7.429,20.408 -14.425,26.687c-7.004,6.283 -16.913,9.421 -29.734,9.421c-7.979,0 -14.883,-1.408 -20.7,-4.221c-5.825,-2.812 -10.57,-6.667 -14.233,-11.575c-3.658,-4.908 -6.375,-10.6 -8.142,-17.075c-1.762,-6.475 -2.645,-13.308 -2.645,-20.508c0,-6.671 0.883,-13.213 2.645,-19.625c1.767,-6.409 4.484,-12.134 8.142,-17.171c3.663,-5.033 8.408,-9.088 14.233,-12.167c5.817,-3.071 12.721,-4.612 20.7,-4.612c8.113,0 15.046,1.637 20.8,4.908c5.759,3.271 10.434,7.554 14.038,12.854c3.596,5.296 6.179,11.379 7.75,18.246c1.571,6.871 2.221,13.842 1.962,20.904l-77.912,0c0,4.446 0.621,9.063 1.867,13.834Z" style="fill:none;fill-rule:nonzero;stroke:#09b3c0;stroke-width:0.73px;"/></svg>