<?xml version="1.0" standalone="no"?>
<!DOCTYPE svg PUBLIC "-//W3C//DTD SVG 20010904//EN"
 "http://www.w3.org/TR/2001/REC-SVG-20010904/DTD/svg10.dtd">
<svg version="1.0" xmlns="http://www.w3.org/2000/svg"
 width="800.000000pt" height="800.000000pt" viewBox="0 0 800.000000 800.000000"
 preserveAspectRatio="xMidYMid meet">
<metadata>
Created by potrace 1.14, written by Peter Selinger 2001-2017
</metadata>
<g transform="translate(0.000000,800.000000) scale(0.100000,-0.100000)"
fill="#000000" stroke="none">
<path d="M3530 7868 c-74 -44 -171 -101 -215 -127 -123 -73 -390 -229 -865
-504 -85 -50 -172 -101 -192 -114 -21 -12 -42 -23 -48 -23 -5 0 -10 -4 -10
-10 0 -5 -4 -10 -9 -10 -5 0 -76 -39 -158 -87 -81 -47 -226 -132 -321 -187
-95 -56 -190 -111 -210 -124 -20 -12 -55 -32 -77 -44 -22 -12 -48 -27 -57 -33
-58 -36 -112 -65 -119 -65 -5 0 -9 -4 -9 -10 0 -5 -5 -10 -11 -10 -6 0 -48
-22 -93 -49 -182 -109 -256 -151 -265 -151 -5 0 -11 -3 -13 -8 -1 -4 -54 -37
-117 -72 -142 -81 -192 -125 -228 -198 l-27 -57 -1 -1778 c0 -978 3 -1781 7
-1783 3 -2 9 0 13 5 3 5 18 16 33 24 15 7 71 39 125 70 54 31 102 57 107 57 6
0 10 4 10 8 0 4 24 20 53 36 72 38 111 61 271 155 76 44 142 81 147 81 5 0 9
5 9 10 0 6 5 10 11 10 8 0 82 41 179 100 8 5 56 32 105 60 128 73 127 72 129
127 1 26 -2 58 -6 71 -4 13 -5 21 0 19 10 -7 7 377 -3 393 -5 7 -4 11 1 7 11
-6 10 215 -1 233 -5 7 -4 11 1 7 5 -3 9 106 9 264 0 148 -4 269 -8 269 -5 0
-5 5 -1 12 4 6 8 214 9 462 1 248 2 459 3 468 3 26 48 74 95 101 60 34 235
136 282 164 22 13 52 29 68 36 15 6 27 15 27 19 0 4 4 8 9 8 5 0 55 27 111 60
56 33 106 60 111 60 5 0 9 5 9 10 0 6 4 10 9 10 10 0 448 249 493 281 15 11
29 19 31 19 2 0 44 23 93 51 49 29 105 61 124 72 19 10 88 50 152 88 64 38
121 69 127 69 5 0 11 3 13 8 2 4 54 36 116 71 104 60 112 67 113 95 2 131 0
1348 -3 1350 -2 2 -64 -33 -138 -76z"/>
<path d="M4315 7252 l0 -687 115 -67 c63 -37 124 -72 135 -77 11 -6 43 -24 70
-41 28 -16 57 -33 65 -37 13 -6 193 -110 230 -133 64 -39 174 -100 181 -100 5
0 9 -4 9 -10 0 -5 4 -10 9 -10 5 0 49 -23 98 -52 48 -28 124 -72 168 -97 44
-25 89 -51 100 -58 11 -7 26 -15 34 -19 8 -4 54 -31 103 -61 49 -29 91 -53 94
-53 3 0 25 -13 48 -30 24 -16 46 -27 48 -24 3 2 11 -2 18 -11 7 -8 19 -15 26
-15 8 0 14 -4 14 -10 0 -5 4 -10 9 -10 5 0 49 -23 98 -51 48 -29 113 -65 143
-82 30 -17 57 -34 58 -39 2 -4 9 -8 17 -8 19 0 81 -62 91 -90 4 -14 8 -529 9
-1144 l0 -1120 89 -53 c49 -29 90 -53 93 -53 2 0 20 -11 41 -23 20 -13 57 -35
82 -49 25 -14 97 -56 160 -93 63 -37 156 -90 205 -118 50 -28 92 -55 93 -59 2
-5 8 -8 13 -8 6 0 58 -28 117 -63 59 -35 114 -66 122 -70 8 -4 29 -16 45 -27
17 -11 44 -26 61 -34 17 -8 35 -19 38 -25 4 -6 15 -11 24 -11 16 0 17 114 16
1762 -1 1307 -4 1774 -13 1805 -18 67 -70 133 -138 178 -66 43 -122 75 -126
72 -1 -1 -23 13 -49 31 -26 18 -49 32 -51 32 -3 0 -35 18 -72 41 -37 22 -82
49 -99 59 -76 43 -163 94 -186 108 -14 9 -27 17 -30 17 -3 1 -30 15 -60 33
-59 35 -66 40 -147 90 -30 17 -55 32 -58 32 -3 0 -34 18 -70 40 -36 22 -70 40
-75 40 -6 0 -10 5 -10 10 0 6 -6 10 -14 10 -7 0 -19 7 -26 15 -6 8 -15 13 -19
12 -3 -1 -42 20 -86 46 -103 62 -101 61 -160 95 -27 16 -90 52 -138 80 -49 29
-93 52 -98 52 -5 0 -9 5 -9 10 0 6 -4 10 -9 10 -8 0 -79 40 -129 72 -15 10
-34 21 -42 25 -8 4 -59 33 -113 65 -53 32 -102 58 -107 58 -6 0 -10 5 -10 10
0 6 -4 10 -10 10 -10 0 -163 87 -212 121 -15 11 -30 19 -34 19 -3 0 -41 21
-82 48 -42 26 -80 47 -84 47 -4 0 -13 6 -19 13 -7 6 -19 12 -26 12 -7 0 -13 5
-13 10 0 6 -5 10 -10 10 -6 0 -40 18 -76 40 -36 22 -68 40 -70 40 -2 0 -28 16
-59 35 -30 20 -63 38 -73 42 -9 3 -24 12 -32 18 -8 7 -35 24 -60 37 -25 14
-73 42 -107 62 -34 20 -65 36 -70 36 -4 0 -8 -309 -8 -688z"/>
<path d="M3955 6071 c-27 -9 -79 -34 -85 -42 -3 -3 -30 -19 -60 -35 -30 -16
-57 -32 -60 -35 -3 -3 -43 -28 -89 -54 -47 -26 -129 -74 -183 -106 -54 -33
-103 -59 -108 -59 -6 0 -10 -4 -10 -10 0 -5 -4 -10 -10 -10 -5 0 -39 -18 -75
-40 -36 -22 -68 -40 -72 -40 -3 0 -14 -6 -22 -14 -9 -7 -41 -26 -71 -42 -30
-16 -57 -32 -60 -35 -9 -10 -152 -89 -161 -89 -5 0 -9 -4 -9 -8 0 -4 -19 -18
-42 -30 -49 -25 -111 -60 -148 -83 -64 -41 -226 -133 -234 -134 -5 0 -11 -5
-13 -11 -3 -10 53 -47 177 -116 25 -14 149 -85 275 -159 127 -73 255 -146 285
-163 30 -16 57 -32 60 -36 3 -3 19 -12 35 -20 17 -8 74 -41 127 -72 53 -32
102 -58 107 -58 6 0 11 -4 11 -9 0 -5 9 -13 21 -16 11 -4 56 -29 99 -56 44
-27 82 -49 85 -49 2 0 39 -20 81 -45 41 -25 80 -45 85 -45 5 0 9 -3 9 -7 0 -5
22 -19 49 -32 l48 -23 99 57 c54 32 119 69 144 83 25 14 88 50 140 81 52 30
105 59 117 65 13 6 23 14 23 19 0 4 4 7 10 7 5 0 62 31 127 68 65 38 125 72
133 75 8 4 29 16 45 26 17 11 46 28 65 39 19 11 132 76 250 144 118 69 235
136 260 150 25 14 66 38 93 53 26 15 45 31 42 35 -3 5 -54 36 -113 70 -59 34
-114 65 -122 71 -47 28 -168 96 -182 102 -10 3 -18 11 -18 17 0 5 -7 10 -15
10 -14 0 -49 19 -125 68 -14 9 -27 17 -30 17 -3 0 -16 8 -30 16 -24 16 -559
327 -630 366 -67 38 -145 83 -160 93 -73 47 -125 63 -165 51z"/>
<path d="M2213 3951 c0 -782 2 -882 16 -912 13 -28 47 -52 191 -136 96 -57
191 -111 210 -120 19 -10 54 -30 76 -45 23 -15 44 -28 47 -28 3 0 38 -19 79
-43 40 -24 93 -55 118 -69 25 -14 133 -76 240 -138 107 -62 209 -121 225 -130
186 -106 302 -173 310 -180 6 -4 19 -10 30 -14 20 -6 20 -1 19 882 -1 488 -2
894 -3 903 -1 8 -20 25 -43 37 -24 12 -56 30 -73 40 -16 9 -59 34 -95 55 -36
20 -72 42 -80 47 -8 5 -60 35 -115 67 -55 32 -108 62 -117 68 -9 5 -40 24 -70
41 -29 17 -71 41 -93 54 -22 12 -60 34 -85 48 -24 14 -84 49 -133 78 -49 30
-90 54 -92 54 -3 0 -429 248 -440 257 -15 11 -112 63 -117 63 -3 0 -5 -395 -5
-879z"/>
<path d="M5710 4801 c-25 -16 -173 -103 -330 -194 -157 -91 -299 -173 -317
-184 -176 -102 -240 -138 -250 -141 -7 -2 -13 -8 -13 -13 0 -5 -5 -9 -10 -9
-6 0 -43 -20 -83 -44 -39 -24 -92 -54 -117 -68 -55 -31 -327 -189 -356 -208
l-21 -13 1 -898 c0 -495 4 -899 8 -899 4 0 37 18 72 40 36 21 86 51 113 65 26
14 55 30 63 35 23 15 309 180 355 204 22 11 42 24 45 27 3 3 30 20 60 37 30
16 84 47 120 67 36 21 85 49 110 63 25 14 62 36 82 49 21 12 40 23 44 23 3 0
18 8 32 19 15 10 50 31 77 45 28 15 57 31 65 36 51 32 203 120 206 120 19 0
85 58 95 83 11 25 13 210 14 909 0 579 -3 878 -10 877 -5 0 -30 -13 -55 -28z"/>
<path d="M1853 2432 c-81 -47 -190 -109 -241 -138 -200 -116 -289 -167 -332
-191 -25 -14 -49 -29 -55 -33 -5 -4 -30 -19 -55 -32 -25 -14 -99 -58 -165 -97
-66 -39 -137 -78 -157 -88 -21 -10 -38 -21 -38 -25 0 -4 53 -37 118 -74 305
-174 419 -239 447 -252 17 -9 32 -18 35 -22 3 -4 41 -26 85 -50 44 -24 124
-70 178 -102 55 -32 100 -58 102 -58 1 0 90 -50 196 -111 107 -62 214 -123
239 -137 25 -14 62 -36 82 -49 21 -12 40 -23 42 -23 3 0 69 -37 148 -83 79
-46 150 -86 158 -90 8 -4 29 -15 45 -25 17 -10 50 -30 75 -44 25 -14 89 -51
143 -82 54 -31 103 -56 108 -56 5 0 9 -4 9 -10 0 -5 4 -10 10 -10 5 0 31 -13
57 -29 27 -16 71 -42 100 -58 28 -15 109 -61 180 -102 131 -75 203 -116 238
-135 11 -6 27 -16 35 -22 8 -6 44 -27 80 -46 36 -19 95 -52 132 -72 80 -43
159 -54 238 -30 27 8 145 70 262 138 117 68 233 135 258 150 25 14 81 46 125
71 44 25 87 50 95 55 39 25 172 100 176 100 3 0 10 5 17 10 19 16 238 140 248
140 5 0 9 5 9 10 0 6 4 10 10 10 7 0 123 63 200 110 47 29 146 86 155 89 6 2
12 7 15 10 3 3 20 14 38 24 17 9 47 25 65 35 17 9 34 20 35 25 2 4 8 7 14 7 6
0 35 16 64 35 29 19 55 35 59 35 3 0 71 38 151 85 80 47 149 85 154 85 6 0 10
4 10 8 0 4 12 13 28 20 15 7 36 18 47 25 21 13 158 92 235 135 25 14 56 32 70
41 14 10 46 28 73 42 26 13 47 27 47 31 0 5 5 8 10 8 6 0 48 21 93 48 45 26
90 52 99 57 9 6 65 37 123 70 l105 60 -27 22 c-16 13 -31 23 -34 23 -4 0 -36
17 -70 38 -35 21 -89 52 -119 69 -30 16 -79 44 -108 62 -29 17 -56 31 -59 31
-4 0 -14 6 -22 14 -9 7 -43 28 -76 46 -33 17 -85 47 -115 66 -30 18 -62 37
-70 41 -8 4 -80 44 -158 90 -79 46 -148 83 -153 83 -5 0 -9 5 -9 10 0 6 -5 10
-11 10 -6 0 -45 20 -86 45 -72 44 -76 45 -99 30 -13 -8 -24 -12 -24 -8 0 5 -4
3 -8 -2 -4 -6 -43 -31 -87 -56 -66 -38 -673 -389 -725 -420 -133 -78 -385
-219 -391 -219 -5 0 -9 -4 -9 -10 0 -5 -4 -10 -9 -10 -6 0 -133 -71 -283 -158
-384 -223 -382 -221 -419 -226 -39 -4 -79 8 -129 39 -19 12 -55 33 -80 47 -48
27 -49 28 -238 137 -68 39 -128 71 -133 71 -5 0 -9 5 -9 10 0 6 -4 10 -9 10
-9 0 -97 49 -161 89 -14 8 -27 16 -30 16 -3 0 -28 14 -55 31 -54 33 -361 211
-435 252 -25 14 -49 28 -55 32 -5 4 -30 19 -55 32 -45 25 -90 51 -152 87 -18
10 -131 75 -250 143 l-217 125 -148 -85z"/>
</g>
</svg>
